<svg xmlns="http://www.w3.org/2000/svg" width="24" height="24" viewBox="0 0 24 24" fill="none" stroke="currentColor" stroke-width="2" stroke-linecap="round" stroke-linejoin="round">
  <circle cx="9" cy="12" r="1"/>
  <circle cx="15" cy="12" r="1"/>
  <path d="M7.5 7.5c3.5-1 5.5-1 9 0"/>
  <path d="M7 16.5c3.5 1 6.5 1 10 0"/>
  <path d="M15.5 17c0 1 1.5 3 2 3 1.5 0 2-1.5 2-3v-1"/>
  <path d="M8.5 17c0 1-1.5 3-2 3-1.5 0-2-1.5-2-3v-1"/>
  <path d="M8.5 2C5 2 2 5.5 2 9c0 2.3 1 4.1 2.5 5.5A15 15 0 0 0 8.5 18h7a15 15 0 0 0 4-3.5C21 13.1 22 11.3 22 9c0-3.5-3-7-6.5-7h-7Z"/>
</svg> 